<svg xmlns="http://www.w3.org/2000/svg" width="501" height="141" viewBox="0 0 501 141">
    <defs>
        <linearGradient id="qga1hy69la" x1="39.403%" x2="72.074%" y1="14.987%" y2="85.221%">
            <stop offset="1%" stop-color="#CBF8E0"/>
            <stop offset="100%" stop-color="#82D0D6"/>
        </linearGradient>
        <linearGradient id="a63ku3l5ab" x1="22.159%" x2="100.014%" y1="50.006%" y2="50.006%">
            <stop offset="0%" stop-color="#2FA8C3"/>
            <stop offset="100%" stop-color="#2385DA"/>
        </linearGradient>
        <linearGradient id="nf97obwvoc" x1=".001%" x2="100.004%" y1="49.995%" y2="49.995%">
            <stop offset="6%" stop-color="#68DECB"/>
            <stop offset="48%" stop-color="#55CBC7"/>
            <stop offset="100%" stop-color="#39AEC2"/>
        </linearGradient>
        <linearGradient id="7rzd10askd" x1="18.856%" x2="81.067%" y1="83.791%" y2="16.423%">
            <stop offset="22%" stop-color="#0F213E"/>
            <stop offset="100%" stop-color="#498CB4"/>
        </linearGradient>
    </defs>
    <g fill="none" fill-rule="evenodd">
        <g>
            <g>
                <path fill="#172C49" d="M282.717 63.594c-7.263 0-14.3 4.12-16.093 12.344h31.066c-1.34-8.004-7.823-12.344-14.973-12.344zm189.949 2.436h-1.15c-2.715.138-5.352.955-7.672 2.374l-.136.084c-.19.121-.386.243-.568.372l-.234.167c-.28.204-.56.417-.825.645-.106.083-.204.159-.302.25l-.447.402-.166.167c-6.758 7.008-6.758 18.128 0 25.136.051.06.107.115.166.167l.447.41.302.242c.265.228.545.44.825.645l.234.167c.182.13.379.25.568.372l.136.083c2.317 1.41 4.95 2.217 7.657 2.345h1.899c2.71-.128 5.344-.934 7.664-2.345l.129-.083.575-.372.227-.167c.287-.205.56-.417.832-.645l.295-.242.454-.41.166-.167c6.758-7.008 6.758-18.128 0-25.136l-.166-.167-.454-.402c-.099-.091-.197-.167-.295-.25-.273-.228-.545-.44-.832-.645l-.227-.167-.575-.372-.13-.084c-2.32-1.406-4.954-2.212-7.663-2.344h-.764l.03-.03zm-127.568 0h-1.15c-2.71.132-5.343.937-7.665 2.344l-.128.084-.575.371-.227.167c-.288.205-.56.418-.832.645-.099.084-.197.16-.295.25l-.454.403c-.053.053-.114.106-.167.167-6.758 7.008-6.758 18.127 0 25.136l.167.167.454.41.295.242c.272.228.544.44.832.645l.227.167.575.372.128.083c2.32 1.41 4.955 2.216 7.665 2.345H345.847c2.707-.129 5.34-.935 7.656-2.345l.137-.083c.189-.122.385-.243.567-.372l.235-.167c.28-.205.56-.417.824-.645l.303-.243.446-.41.167-.166c6.758-7.009 6.758-18.128 0-25.136l-.167-.167-.446-.402c-.099-.092-.204-.167-.303-.25-.265-.228-.545-.44-.824-.646l-.235-.167c-.182-.129-.378-.25-.567-.371l-.137-.084c-2.318-1.407-4.95-2.212-7.656-2.344H345.082h.016zm127.454-11.002h1.589c.401 0 .757.046 1.165.084h.22c5.826.496 11.353 2.8 15.812 6.593l.59.508.379.357c5.18 4.878 8.268 11.584 8.61 18.702v.38l.083 1.836v27.617h-12.189v-4.833c-3.973 2.656-8.55 4.266-13.308 4.681h-.22c-.385 0-.756.06-1.165.076-.408.015-.802.038-1.203.038H471.985c-.401 0-.802 0-1.203-.038s-.757-.046-1.158-.076h-.22c-5.824-.496-11.35-2.797-15.812-6.586l-.59-.516-.378-.356c-5.527-5.348-8.65-12.719-8.65-20.42 0-7.703 3.123-15.074 8.65-20.422l.378-.356.59-.509c4.458-3.794 9.986-6.1 15.813-6.593h.22c.385 0 .756-.068 1.157-.083.4-.015.802 0 1.203 0h.545l.022-.084zm-127.575 0h1.596c.401 0 .757.046 1.158.084h.219c5.827.493 11.355 2.798 15.813 6.593l.59.508.378.357c5.16 4.863 8.237 11.542 8.587 18.634v.448l.084 1.836v27.617h-12.136v-4.833c-3.976 2.657-8.556 4.266-13.316 4.681h-.22c-.385 0-.756.06-1.157.076-.401.015-.802.038-1.21.038H344.438c-.4 0-.802 0-1.203-.038-.4-.038-.756-.046-1.165-.076h-.22c-5.822-.494-11.347-2.796-15.804-6.586l-.598-.516-.378-.356c-5.521-5.351-8.64-12.72-8.64-20.42 0-7.7 3.119-15.07 8.64-20.422l.386-.356c.189-.175.386-.342.582-.509 4.459-3.793 9.986-6.098 15.813-6.593h.22c.385 0 .756-.068 1.164-.083.409-.015.802 0 1.203 0h.538v-.084zm-93.696-1.57v12.898l-2.383-.205c-9.027.124-16.297 7.465-16.358 16.517l.205 28.46h-12.106l-.098-30.349c-.015-15.925 13.338-27.534 28.046-27.534l2.694.213zM438.06 64.194l-8.262 6.251c-2.527-3.338-5.902-5.485-10.366-5.485-3.601 0-7.3 1.73-7.3 5.068 0 2.587 1.195 4.742 6.536 6.366l5.554 1.616c9.593 2.906 15.252 7.435 15.252 16.388 0 10.349-8.496 16.692-19.716 16.692-9.7 0-17.977-3.665-21.941-11.427l8.829-6.251c2.179 4.742 7.513 7.435 13.074 7.435 4.244 0 7.846-1.942 7.846-5.713 0-3.126-1.854-4.848-8.39-6.897l-4.76-1.274c-9.586-2.588-14.375-8.407-14.269-16.495 0-9.506 8.602-15.44 19.497-15.44 8.285 0 14.602 3.126 18.416 9.166zM393.33 31v80.09h-12.665V43.07c0-6.411 5.243-11.654 11.863-12.048l.802-.023zM283.163 53.245c14.754 0 26.927 9.682 26.927 27.587 0 1.23 0 2.23-.106 4.006h-43.92c.56 9.234 7.824 15.129 17.213 15.129 7.929 0 12.96-3.559 15.98-8.452l9.38 6.669c-5.023 8.012-13.739 12.898-25.474 12.898-16.985 0-29.166-11.897-29.166-28.922 0-16.343 12.181-28.915 29.166-28.915zm-94.845.896c11.545 0 21.093 6.001 25.867 15.348l-10.66 5.782c-2.677-5.97-8.604-9.804-15.132-9.788-9.124 0-16.493 7.413-16.94 16.54-.506 10.395 6.628 18.612 16.857 18.612 6.556.048 12.52-3.791 15.208-9.788l10.652 5.782C209.411 105.976 199.863 112 188.318 112 171.673 112 159 99.542 159 83.086c0-16.457 12.658-28.945 29.318-28.945z" transform="translate(-344 -379) translate(344 379)"/>
                <g>
                    <path fill="url(#qga1hy69la)" fill-rule="nonzero" d="M37.643 55.305c6.134-17.93 16.097-32.632 27.411-42.273C51.322 1.427 35.924-3.159 22.95 2.273-.384 12.095-7.02 50.628 8.13 88.315 20.84 119.92 44.828 140.834 66 141c-2.856-.146-5.678-.7-8.379-1.647-23.98-8.576-32.921-46.21-19.978-84.048z" transform="translate(-344 -379) translate(344 379)"/>
                    <path fill="url(#a63ku3l5ab)" fill-rule="nonzero" d="M103.838 2.742C91.097-1.776 76.695 2.742 64 13.426c11.072 9.23 21.075 22.926 27.87 39.603 15.312 37.563 8.608 75.939-14.962 85.719-3.792 1.532-7.86 2.28-11.952 2.198 22.417 1.295 47.474-21.02 59.062-54.443 13.052-37.713 4.042-75.208-20.18-83.761z" transform="translate(-344 -379) translate(344 379)"/>
                    <path fill="url(#nf97obwvoc)" fill-rule="nonzero" d="M92.755 52.75C85.907 36.011 75.901 22.265 64.792 13c-11.467 9.643-21.564 24.349-27.78 42.282-13.118 37.846-4.056 75.487 20.247 84.065 2.738.947 5.597 1.501 8.492 1.647 4.107.082 8.187-.67 11.992-2.207 23.648-9.816 30.374-48.335 15.012-86.037z" transform="translate(-344 -379) translate(344 379)"/>
                    <path fill="#FFF" fill-rule="nonzero" d="M92.755 52.75C85.907 36.011 75.901 22.265 64.792 13c-11.467 9.643-21.564 24.349-27.78 42.282-13.118 37.846-4.056 75.487 20.247 84.065 2.738.947 5.597 1.501 8.492 1.647 4.107.082 8.187-.67 11.992-2.207 23.648-9.816 30.374-48.335 15.012-86.037z" opacity=".1" transform="translate(-344 -379) translate(344 379)"/>
                    <path fill="url(#7rzd10askd)" d="M79.2 104.494l-.198.202c-.16.172-.336.336-.512.508l-.35.307c-.306.277-.627.539-.947.8l-.268.203c-.213.157-.435.321-.671.464l-.145.12c-2.635 1.718-5.689 2.72-8.848 2.902h-2.237c-3.175-.174-6.246-1.176-8.893-2.903l-.16-.104-.673-.464-.267-.202c-.334-.246-.655-.508-.962-.786l-.35-.307-.528-.404-.198-.21c-3.938-4.227-6.08-9.77-5.985-15.493-.154-5.712 1.921-11.266 5.802-15.531.065-.071.133-.138.206-.202.16-.179.331-.349.511-.509l.352-.321c.305-.277.626-.54.946-.8l.26-.203.656-.464.16-.104c2.628-1.752 5.685-2.784 8.856-2.993h2.221c3.176.181 6.245 1.185 8.894 2.91l.16.097.657.464.275.21c.32.24.64.501.961.748l.352.307.526.493.191.202c3.918 4.193 6.06 9.69 5.993 15.374.2 5.764-1.873 11.382-5.787 15.689z" transform="translate(-344 -379) translate(344 379)"/>
                </g>
            </g>
        </g>
    </g>
</svg>
